
<svg width="24px" height="20px" viewBox="0 0 24 20" version="1.1" xmlns="http://www.w3.org/2000/svg" xmlns:xlink="http://www.w3.org/1999/xlink">
    <!-- Generator: Sketch 49.3 (51167) - http://www.bohemiancoding.com/sketch -->
    <desc>Created with Sketch.</desc>
    <defs></defs>
    <g id="Main" stroke="none" stroke-width="1" fill="none" fill-rule="evenodd">
        <g id="Artboard" transform="translate(-284.000000, -76.000000)" stroke="#979797" stroke-width="2">
            <path d="M299.349432,89.5226481 C298.951049,91.0694201 297.566532,92.2152536 295.9124,92.2152536 C294.258268,92.2152536 292.873751,91.0694201 292.475368,89.5226481 L284.955013,89.5226481 L289.595952,77.195122 L302.644048,77.195122 L307.284987,89.5226481 L299.349432,89.5226481 Z M307,88.8658273 L302.616821,77.2842575 C302.552074,77.1131763 302.38823,77 302.205307,77 L289.794693,77 C289.61177,77 289.447926,77.1131763 289.383179,77.2842575 L285,88.8658273 L285,94.56 C285,94.8030053 285.196995,95 285.44,95 L306.56,95 C306.803005,95 307,94.8030053 307,94.56 L307,88.8658273 Z" id="Combined-Shape-Copy"></path>
        </g>
    </g>
</svg>