
<svg width="24px" height="20px" viewBox="0 0 24 20" version="1.1" xmlns="http://www.w3.org/2000/svg" xmlns:xlink="http://www.w3.org/1999/xlink">
    <!-- Generator: Sketch 49.3 (51167) - http://www.bohemiancoding.com/sketch -->
    <desc>Created with Sketch.</desc>
    <defs>
        <path d="M159.46347,88.5226481 L166.84,88.5226481 L162.952,78.195122 L151.288,78.195122 L147.4,88.5226481 L154.36133,88.5226481 C154.360445,88.5508634 154.36,88.579192 154.36,88.6076268 C154.36,90.0477793 155.502748,91.2152536 156.9124,91.2152536 C158.322052,91.2152536 159.4648,90.0477793 159.4648,88.6076268 C159.4648,88.579192 159.464355,88.5508634 159.46347,88.5226481 Z M169,88.6829268 L169,94.56 C169,95.35529 168.35529,96 167.56,96 L146.44,96 C145.64471,96 145,95.35529 145,94.56 L145,88.6829268 L149.447918,76.9302974 C149.65982,76.370395 150.196034,76 150.794693,76 L163.205307,76 C163.803966,76 164.34018,76.370395 164.552082,76.9302974 L169,88.6829268 Z" id="path-1"></path>
    </defs>
    <g id="Main" stroke="none" stroke-width="1" fill="none" fill-rule="evenodd">
        <g id="Artboard" transform="translate(-145.000000, -76.000000)">
            <g id="Combined-Shape">
                <use fill="#D8D8D8" fill-rule="evenodd" xlink:href="#path-1"></use>
                <path stroke="#979797" stroke-width="2" d="M160.349432,89.5226481 C159.951049,91.0694201 158.566532,92.2152536 156.9124,92.2152536 C155.258268,92.2152536 153.873751,91.0694201 153.475368,89.5226481 L145.955013,89.5226481 L150.595952,77.195122 L163.644048,77.195122 L168.284987,89.5226481 L160.349432,89.5226481 Z M168,88.8658273 L163.616821,77.2842575 C163.552074,77.1131763 163.38823,77 163.205307,77 L150.794693,77 C150.61177,77 150.447926,77.1131763 150.383179,77.2842575 L146,88.8658273 L146,94.56 C146,94.8030053 146.196995,95 146.44,95 L167.56,95 C167.803005,95 168,94.8030053 168,94.56 L168,88.8658273 Z"></path>
            </g>
        </g>
    </g>
</svg>