<svg width="24px" height="24px" viewBox="0 0 24 24" version="1.1" xmlns="http://www.w3.org/2000/svg" xmlns:xlink="http://www.w3.org/1999/xlink">
    <!-- Generator: Sketch 49.3 (51167) - http://www.bohemiancoding.com/sketch -->
    <desc>Created with Sketch.</desc>
    <defs></defs>
    <g id="Main" stroke="none" stroke-width="1" fill="none" fill-rule="evenodd">
        <g id="Main/Setting_Selected" fill="#979797">
            <path d="M9.91786411,23.820009 L9.7826877,23.3391348 C9.34977634,21.7991036 7.75039038,20.9016056 6.21035917,21.3345169 C5.97321869,21.4011785 5.74555034,21.4978179 5.53286645,21.6220955 L5.14354808,21.849586 C3.97040909,21.0314171 2.95029444,20.0090175 2.1347402,18.8339232 L2.3340919,18.4786685 C3.11694386,17.0835875 2.6206341,15.3180239 1.22555303,14.535172 C1.01073259,14.4146251 0.781412324,14.3219737 0.543144565,14.259461 L0.195375161,14.1682192 C0.0670381965,13.4649633 0,12.7403105 0,12 C0,11.2707114 0.0650569087,10.5566176 0.189683848,9.86320556 L0.504007934,9.77484731 C2.04403915,9.34193595 2.94153712,7.74254999 2.50862577,6.20251878 C2.44196426,5.9653783 2.34532478,5.73770995 2.22104717,5.52502606 L2.06804583,5.26318547 C2.88499939,4.06110751 3.91446753,3.01511271 5.10244044,2.17921086 L5.36447417,2.32625151 C6.75955524,3.10910347 8.5251188,2.61279371 9.30797076,1.21771264 C9.4285176,1.0028922 9.521169,0.773571934 9.58368168,0.535304174 L9.66453561,0.227128576 C10.4199659,0.0781159572 11.2008605,0 12,0 C12.6724365,0 13.3319549,0.0553091692 13.974254,0.161626394 L14.0682954,0.496167543 C14.5012068,2.03619876 16.1005927,2.93369673 17.6406239,2.50078538 C17.8777644,2.43412387 18.1054328,2.33748439 18.3181167,2.21320678 L18.6577337,2.0147583 C19.8499226,2.811242 20.8914569,3.81556161 21.730533,4.97591352 L21.5168912,5.35663378 C20.7340392,6.75171485 21.230349,8.51727841 22.6254301,9.30013037 C22.8402505,9.42067721 23.0695708,9.51332861 23.3078385,9.57584129 L23.7797436,9.6996518 C23.9242849,10.4441576 24,11.2132367 24,12 C24,12.6534561 23.9477691,13.2947131 23.8472544,13.9198237 L23.3469752,14.060455 C21.806944,14.4933664 20.909446,16.0927523 21.3423573,17.6327835 C21.4090188,17.869924 21.5056583,18.0975924 21.6299359,18.3102763 L21.903516,18.7784707 C21.1059218,19.9415405 20.1087669,20.9570206 18.9614164,21.7755459 L18.4865089,21.5090508 C17.0914279,20.7261989 15.3258643,21.2225086 14.5430123,22.6175897 C14.4224655,22.8324101 14.3298141,23.0617304 14.2673014,23.2999981 L14.1332456,23.8109534 C13.440946,23.9351649 12.7280445,24 12,24 C11.2898586,24 10.5941246,23.9383143 9.91786411,23.820009 Z M12.1034483,16.7586207 C14.674429,16.7586207 16.7586207,14.674429 16.7586207,12.1034483 C16.7586207,9.53246754 14.674429,7.44827586 12.1034483,7.44827586 C9.53246754,7.44827586 7.44827586,9.53246754 7.44827586,12.1034483 C7.44827586,14.674429 9.53246754,16.7586207 12.1034483,16.7586207 Z" id="Combined-Shape"></path>
        </g>
    </g>
</svg>