<svg width="24px" height="24px" viewBox="0 0 24 24" version="1.1" xmlns="http://www.w3.org/2000/svg" xmlns:xlink="http://www.w3.org/1999/xlink">
    <!-- Generator: Sketch 49.3 (51167) - http://www.bohemiancoding.com/sketch -->
    <desc>Created with Sketch.</desc>
    <defs></defs>
    <g id="Main" stroke="none" stroke-width="1" fill="none" fill-rule="evenodd">
        <g id="Main/Setting_Normal" stroke="#979797" stroke-width="2">
            <path d="M10.701868,22.9243048 C11.1301849,22.9746109 11.5633734,23 12,23 C12.4493281,23 12.8950092,22.9731122 13.3354779,22.9198541 C13.4177146,22.6445391 13.5301912,22.3790341 13.6709348,22.128222 C14.7059969,20.2836899 17.0180872,19.607106 18.8788938,20.5843084 C19.5611996,20.0367847 20.1767528,19.4097124 20.7114704,18.7173746 C20.5705805,18.4595383 20.4592472,18.1864863 20.3796702,17.9034003 C19.8100158,15.876922 20.9527843,13.7740458 22.9419131,13.1381381 C22.9805338,12.7620184 23,12.3823202 23,12 C23,11.4942164 22.9659309,10.9930786 22.8985441,10.4988334 C22.633633,10.4174434 22.3780113,10.3079779 22.1360624,10.1722079 C20.3252023,9.15604093 19.6400378,6.90904471 20.5402825,5.06659704 C19.9716953,4.36716759 19.3191742,3.73919044 18.5984427,3.19795227 C18.3784458,3.3078784 18.1483633,3.39681605 17.9112407,3.46347255 C15.9410011,4.01731787 13.8985452,2.9524677 13.202278,1.06486225 C12.8052071,1.02174407 12.4040706,1 12,1 C11.4784114,1 10.9617689,1.03623163 10.45254,1.10786777 C10.3788402,1.31474632 10.2877152,1.51521252 10.1800483,1.70708034 C9.18559781,3.47924053 7.01236397,4.17330553 5.19310049,3.35840976 C4.46509804,3.93271005 3.81148402,4.59692613 3.24903556,5.33407259 C3.33925639,5.52676068 3.41362812,5.72669509 3.47131294,5.93190205 C4.02409873,7.89837246 2.9643764,9.93678314 1.08352688,10.636854 C1.02802591,11.0863235 1,11.5412608 1,12 C1,12.4644868 1.02873262,12.9250719 1.08562411,13.3800239 C1.30316114,13.4555202 1.51376637,13.5502163 1.71492073,13.6630944 C3.52120133,14.6766916 4.20747274,16.9149007 3.31749999,18.7547196 C3.86961209,19.4632949 4.50659416,20.1026222 5.21310609,20.6573346 C5.44499167,20.5381614 5.68841252,20.44248 5.93974244,20.3718298 C7.96290136,19.8031085 10.0622081,20.9412047 10.701868,22.9243048 Z M12.1034483,17.7586207 C8.98018279,17.7586207 6.44827586,15.2267138 6.44827586,12.1034483 C6.44827586,8.98018279 8.98018279,6.44827586 12.1034483,6.44827586 C15.2267138,6.44827586 17.7586207,8.98018279 17.7586207,12.1034483 C17.7586207,15.2267138 15.2267138,17.7586207 12.1034483,17.7586207 Z" id="Combined-Shape-Copy"></path>
        </g>
    </g>
</svg>